<svg width="90" height="32" viewBox="0 0 90 32" fill="none" xmlns="http://www.w3.org/2000/svg">
<rect x="0.5" y="0.5" width="89" height="31" rx="15.5" stroke="#6C5CE7"/>
<path d="M21.6625 21H25.5787C27.5091 21 28.617 19.9688 28.617 18.5582C28.617 17.2969 27.7008 16.5043 26.644 16.4574V16.3722C27.6028 16.1719 28.2761 15.4773 28.2761 14.4801C28.2761 13.1634 27.2619 12.2727 25.3017 12.2727H21.6625V21ZM23.7718 19.2997V17.2202H25.1142C25.9196 17.2202 26.4139 17.6463 26.4139 18.3153C26.4139 18.9332 25.9877 19.2997 25.0758 19.2997H23.7718ZM23.7718 15.8608V13.9474H24.9735C25.6767 13.9474 26.1241 14.3097 26.1241 14.8892C26.1241 15.5028 25.6298 15.8608 24.9395 15.8608H23.7718ZM32.1312 21H38.2164V19.2869H34.2406V17.4929H37.9054V15.7756H34.2406V13.9858H38.2164V12.2727H32.1312V21ZM46.7548 14.8892H48.7747C48.7576 13.2571 47.4579 12.1534 45.4295 12.1534C43.4352 12.1534 41.9991 13.2401 42.0119 14.8636C42.0076 16.1889 42.9366 16.9347 44.4451 17.2798L45.3571 17.4929C46.3159 17.7145 46.7463 17.9744 46.7548 18.4645C46.7463 18.9972 46.2477 19.3679 45.3997 19.3679C44.4664 19.3679 43.8528 18.9332 43.8059 18.0938H41.786C41.8116 20.1349 43.2306 21.1108 45.4252 21.1108C47.5985 21.1108 48.8855 20.1264 48.894 18.4688C48.8855 17.0753 47.9437 16.223 46.2221 15.8438L45.4721 15.6733C44.6795 15.5028 44.1767 15.2386 44.1937 14.7188C44.198 14.2415 44.6071 13.8963 45.4252 13.8963C46.2477 13.8963 46.6994 14.267 46.7548 14.8892ZM52.1738 13.9858H54.8244V21H56.9039V13.9858H59.5502V12.2727H52.1738V13.9858ZM65.5307 12.2727H63.3873L63.5833 18.3281H65.3347L65.5307 12.2727ZM64.4611 21.1236C65.0449 21.1236 65.5605 20.6293 65.5691 20.0156C65.5605 19.4105 65.0449 18.9205 64.4611 18.9205C63.8475 18.9205 63.3446 19.4105 63.3532 20.0156C63.3446 20.6293 63.8475 21.1236 64.4611 21.1236Z" fill="#2D3436"/>
</svg>
